<svg id="visual" xmlns="http://www.w3.org/2000/svg" viewBox="0 0 1920 2160"><defs><style>.cls-1{fill:#575757;}.cls-2{fill:#717171;}.cls-3{fill:#919191;}.cls-4{fill:#b2b2b2;}.cls-5{fill:#d4d4d4;}</style></defs><rect class="cls-1" y="40.35" width="1920" height="1080"/><path class="cls-2" d="M0,454H160V422H480V366H640v21H800v78H960V385h160v87h160V379h160v63h160V421h160V363h160V0H0Z"/><path class="cls-3" d="M0,261H160v95H320v4H480V337H800V319H960v3h160v18h160V330h320v12h160v16h160V0H0Z"/><path class="cls-4" d="M0,218H160V180H320v63H480V227H640v9H800V222H960V207h160V184h160V158h160V262h160V180h160v20h160V0H0Z"/><path class="cls-5" d="M0,112H160v-1H320v-6H480V77H640V98H800v44H960V127h160V110h160V96h160V86h160v43h160v-3h160V0H0Z"/><rect class="cls-1" y="1039.65" width="1920" height="1080"/><path class="cls-2" d="M0,2160H1920V1797H1760v-58H1600v-21H1440v63H1280v-93H1120v87H960v-80H800v78H640v21H480v-56H160v-32H0Z"/><path class="cls-3" d="M0,2160H1920V1802H1760v16H1600v12H1280v-10H1120v18H960v3H800v-18H480v-23H320v4H160v95H0Z"/><path class="cls-4" d="M0,2160H1920V1960H1760v20H1600v-82H1440v104H1280v-26H1120v-23H960v-15H800v-14H640v9H480v-16H320v63H160v-38H0Z"/><path class="cls-5" d="M0,2160H1920V2034H1760v-3H1600v43H1440v-10H1280v-14H1120v-17H960v-15H800v44H640v21H480v-28H320v-6H160v-1H0Z"/></svg>