<svg id="Calque_1" data-name="Calque 1" xmlns="http://www.w3.org/2000/svg" viewBox="0 0 1200 800"><defs><style>.cls-1{fill:#fff;}</style></defs><path class="cls-1" d="M222.06,412.77H160.29V397.45h79.65c-2.09-6.51-8.82-12.54-20.67-12.54H161.45c-13.24,0-20.9,4.87-20.9,15.55v11.38c0,9.29,7.9,14.63,19.51,14.63h62.47v16.26H138.46c2.09,8.82,8.83,13.47,20.9,13.47h62.93c13.24,0,19.74-5.11,19.74-16V428.8C242,418.81,234.37,413.47,222.06,412.77Zm126.1-27.63H272v71.29h21.59V429h56.2c15.56,0,24.15-5.34,24.15-17.88v-7.9C373.7,391.64,364,385.14,348.16,385.14Zm7,22.76c0,5.1-.93,7.89-9.29,7.89H293.58l.24-18.58h51.09c9.28,0,10.45,2.79,10.45,7.67v3Zm90.57,20.66h-46l-11.38,12.08h66.42l11.37,15.79h25.55l-55-74.31-13,16ZM533,397.45h80.82c-2.09-8.36-10.22-12.54-21.83-12.54H531.61c-10.45,0-20.43,4.18-20.43,15.55v40c0,11.38,10,15.56,20.43,15.56h61.08c13.93,0,18.8-4,21.13-13.47H533Zm175.56,23.68V409.06H643.31v47.37h96.37V443H665.14V421.13Zm-62.93-36h97.3v12.54h-97.3Zm157.21,0h-33.9l39.94,29.26c5.81-3.95,12.54-8.13,18.58-11.61Zm49.24,36.46c-5.81,3.94-11.62,8.36-17.19,12.54l30.19,22.06h34.14Z"/><path class="cls-1" d="M1061.54,343.57c-185.78,10.68-271.7,90.1-291,108.91l-4,3.72H801C893.88,363.08,1027.4,346.59,1061.54,343.57Z"/></svg>