<svg id="visual" viewBox="0 0 1920 1080" width="1920" height="1080" xmlns="http://www.w3.org/2000/svg" xmlns:xlink="http://www.w3.org/1999/xlink" version="1.1"><path d="M794 0L756 25.7C718 51.3 642 102.7 601.7 154.2C561.3 205.7 556.7 257.3 572.7 308.8C588.7 360.3 625.3 411.7 628.5 463C631.7 514.3 601.3 565.7 612.7 617C624 668.3 677 719.7 676.2 771.2C675.3 822.7 620.7 874.3 606.8 925.8C593 977.3 620 1028.7 633.5 1054.3L647 1080L0 1080L0 1054.3C0 1028.7 0 977.3 0 925.8C0 874.3 0 822.7 0 771.2C0 719.7 0 668.3 0 617C0 565.7 0 514.3 0 463C0 411.7 0 360.3 0 308.8C0 257.3 0 205.7 0 154.2C0 102.7 0 51.3 0 25.7L0 0Z" fill="#323232"></path><path d="M547 0L565.8 25.7C584.7 51.3 622.3 102.7 610 154.2C597.7 205.7 535.3 257.3 496.3 308.8C457.3 360.3 441.7 411.7 470.2 463C498.7 514.3 571.3 565.7 582.3 617C593.3 668.3 542.7 719.7 543.3 771.2C544 822.7 596 874.3 610.5 925.8C625 977.3 602 1028.7 590.5 1054.3L579 1080L0 1080L0 1054.3C0 1028.7 0 977.3 0 925.8C0 874.3 0 822.7 0 771.2C0 719.7 0 668.3 0 617C0 565.7 0 514.3 0 463C0 411.7 0 360.3 0 308.8C0 257.3 0 205.7 0 154.2C0 102.7 0 51.3 0 25.7L0 0Z" fill="#464646"></path><path d="M286 0L312.2 25.7C338.3 51.3 390.7 102.7 424 154.2C457.3 205.7 471.7 257.3 465.2 308.8C458.7 360.3 431.3 411.7 433 463C434.7 514.3 465.3 565.7 465 617C464.7 668.3 433.3 719.7 421.7 771.2C410 822.7 418 874.3 423.5 925.8C429 977.3 432 1028.7 433.5 1054.3L435 1080L0 1080L0 1054.3C0 1028.7 0 977.3 0 925.8C0 874.3 0 822.7 0 771.2C0 719.7 0 668.3 0 617C0 565.7 0 514.3 0 463C0 411.7 0 360.3 0 308.8C0 257.3 0 205.7 0 154.2C0 102.7 0 51.3 0 25.7L0 0Z" fill="#5a5a5a"></path><path d="M210 0L214 25.7C218 51.3 226 102.7 231 154.2C236 205.7 238 257.3 252.8 308.8C267.7 360.3 295.3 411.7 292.5 463C289.7 514.3 256.3 565.7 244.3 617C232.3 668.3 241.7 719.7 254.5 771.2C267.3 822.7 283.7 874.3 297.3 925.8C311 977.3 322 1028.7 327.5 1054.3L333 1080L0 1080L0 1054.3C0 1028.7 0 977.3 0 925.8C0 874.3 0 822.7 0 771.2C0 719.7 0 668.3 0 617C0 565.7 0 514.3 0 463C0 411.7 0 360.3 0 308.8C0 257.3 0 205.7 0 154.2C0 102.7 0 51.3 0 25.7L0 0Z" fill="#6f6f6f"></path><path d="M87 0L88.5 25.7C90 51.3 93 102.7 94 154.2C95 205.7 94 257.3 104.2 308.8C114.3 360.3 135.7 411.7 137.5 463C139.3 514.3 121.7 565.7 118.7 617C115.7 668.3 127.3 719.7 130.2 771.2C133 822.7 127 874.3 127 925.8C127 977.3 133 1028.7 136 1054.3L139 1080L0 1080L0 1054.3C0 1028.7 0 977.3 0 925.8C0 874.3 0 822.7 0 771.2C0 719.7 0 668.3 0 617C0 565.7 0 514.3 0 463C0 411.7 0 360.3 0 308.8C0 257.3 0 205.7 0 154.2C0 102.7 0 51.3 0 25.7L0 0Z" fill="#858585"></path></svg>